%TF.GenerationSoftware,KiCad,Pcbnew,9.0.2+dfsg-1*%
%TF.CreationDate,2026-04-18T12:56:59-05:00*%
%TF.ProjectId,PCB,5043422e-6b69-4636-9164-5f7063625858,rev?*%
%TF.SameCoordinates,Original*%
%TF.FileFunction,Legend,Top*%
%TF.FilePolarity,Positive*%
%FSLAX46Y46*%
G04 Gerber Fmt 4.6, Leading zero omitted, Abs format (unit mm)*
G04 Created by KiCad (PCBNEW 9.0.2+dfsg-1) date 2026-04-18 12:56:59*
%MOMM*%
%LPD*%
G01*
G04 APERTURE LIST*
G04 Aperture macros list*
%AMRoundRect*
0 Rectangle with rounded corners*
0 $1 Rounding radius*
0 $2 $3 $4 $5 $6 $7 $8 $9 X,Y pos of 4 corners*
0 Add a 4 corners polygon primitive as box body*
4,1,4,$2,$3,$4,$5,$6,$7,$8,$9,$2,$3,0*
0 Add four circle primitives for the rounded corners*
1,1,$1+$1,$2,$3*
1,1,$1+$1,$4,$5*
1,1,$1+$1,$6,$7*
1,1,$1+$1,$8,$9*
0 Add four rect primitives between the rounded corners*
20,1,$1+$1,$2,$3,$4,$5,0*
20,1,$1+$1,$4,$5,$6,$7,0*
20,1,$1+$1,$6,$7,$8,$9,0*
20,1,$1+$1,$8,$9,$2,$3,0*%
G04 Aperture macros list end*
%ADD10C,0.150000*%
%ADD11C,0.120000*%
%ADD12C,1.600000*%
%ADD13R,0.900000X2.000000*%
%ADD14RoundRect,1.025000X-1.025000X-1.025000X1.025000X-1.025000X1.025000X1.025000X-1.025000X1.025000X0*%
%ADD15C,4.100000*%
%ADD16R,1.800000X1.800000*%
%ADD17C,1.800000*%
%ADD18R,1.700000X1.700000*%
%ADD19C,1.700000*%
%ADD20R,1.600000X1.600000*%
%ADD21O,1.600000X1.600000*%
G04 APERTURE END LIST*
D10*
X102062380Y-121781009D02*
X102205237Y-121828628D01*
X102205237Y-121828628D02*
X102252856Y-121876247D01*
X102252856Y-121876247D02*
X102300475Y-121971485D01*
X102300475Y-121971485D02*
X102300475Y-122114342D01*
X102300475Y-122114342D02*
X102252856Y-122209580D01*
X102252856Y-122209580D02*
X102205237Y-122257200D01*
X102205237Y-122257200D02*
X102109999Y-122304819D01*
X102109999Y-122304819D02*
X101729047Y-122304819D01*
X101729047Y-122304819D02*
X101729047Y-121304819D01*
X101729047Y-121304819D02*
X102062380Y-121304819D01*
X102062380Y-121304819D02*
X102157618Y-121352438D01*
X102157618Y-121352438D02*
X102205237Y-121400057D01*
X102205237Y-121400057D02*
X102252856Y-121495295D01*
X102252856Y-121495295D02*
X102252856Y-121590533D01*
X102252856Y-121590533D02*
X102205237Y-121685771D01*
X102205237Y-121685771D02*
X102157618Y-121733390D01*
X102157618Y-121733390D02*
X102062380Y-121781009D01*
X102062380Y-121781009D02*
X101729047Y-121781009D01*
X103157618Y-122304819D02*
X103157618Y-121781009D01*
X103157618Y-121781009D02*
X103109999Y-121685771D01*
X103109999Y-121685771D02*
X103014761Y-121638152D01*
X103014761Y-121638152D02*
X102824285Y-121638152D01*
X102824285Y-121638152D02*
X102729047Y-121685771D01*
X103157618Y-122257200D02*
X103062380Y-122304819D01*
X103062380Y-122304819D02*
X102824285Y-122304819D01*
X102824285Y-122304819D02*
X102729047Y-122257200D01*
X102729047Y-122257200D02*
X102681428Y-122161961D01*
X102681428Y-122161961D02*
X102681428Y-122066723D01*
X102681428Y-122066723D02*
X102729047Y-121971485D01*
X102729047Y-121971485D02*
X102824285Y-121923866D01*
X102824285Y-121923866D02*
X103062380Y-121923866D01*
X103062380Y-121923866D02*
X103157618Y-121876247D01*
X103490952Y-121638152D02*
X103871904Y-121638152D01*
X103633809Y-121304819D02*
X103633809Y-122161961D01*
X103633809Y-122161961D02*
X103681428Y-122257200D01*
X103681428Y-122257200D02*
X103776666Y-122304819D01*
X103776666Y-122304819D02*
X103871904Y-122304819D01*
X104062381Y-121638152D02*
X104443333Y-121638152D01*
X104205238Y-121304819D02*
X104205238Y-122161961D01*
X104205238Y-122161961D02*
X104252857Y-122257200D01*
X104252857Y-122257200D02*
X104348095Y-122304819D01*
X104348095Y-122304819D02*
X104443333Y-122304819D01*
X105157619Y-122257200D02*
X105062381Y-122304819D01*
X105062381Y-122304819D02*
X104871905Y-122304819D01*
X104871905Y-122304819D02*
X104776667Y-122257200D01*
X104776667Y-122257200D02*
X104729048Y-122161961D01*
X104729048Y-122161961D02*
X104729048Y-121781009D01*
X104729048Y-121781009D02*
X104776667Y-121685771D01*
X104776667Y-121685771D02*
X104871905Y-121638152D01*
X104871905Y-121638152D02*
X105062381Y-121638152D01*
X105062381Y-121638152D02*
X105157619Y-121685771D01*
X105157619Y-121685771D02*
X105205238Y-121781009D01*
X105205238Y-121781009D02*
X105205238Y-121876247D01*
X105205238Y-121876247D02*
X104729048Y-121971485D01*
X105633810Y-122304819D02*
X105633810Y-121638152D01*
X105633810Y-121828628D02*
X105681429Y-121733390D01*
X105681429Y-121733390D02*
X105729048Y-121685771D01*
X105729048Y-121685771D02*
X105824286Y-121638152D01*
X105824286Y-121638152D02*
X105919524Y-121638152D01*
X106157620Y-121638152D02*
X106395715Y-122304819D01*
X106633810Y-121638152D02*
X106395715Y-122304819D01*
X106395715Y-122304819D02*
X106300477Y-122542914D01*
X106300477Y-122542914D02*
X106252858Y-122590533D01*
X106252858Y-122590533D02*
X106157620Y-122638152D01*
X107538572Y-122304819D02*
X106967144Y-122304819D01*
X107252858Y-122304819D02*
X107252858Y-121304819D01*
X107252858Y-121304819D02*
X107157620Y-121447676D01*
X107157620Y-121447676D02*
X107062382Y-121542914D01*
X107062382Y-121542914D02*
X106967144Y-121590533D01*
X109938571Y-141964700D02*
X111081429Y-141964700D01*
X110510000Y-142536128D02*
X110510000Y-141393271D01*
X97638571Y-141964700D02*
X98781429Y-141964700D01*
X153772142Y-102844819D02*
X153962618Y-102844819D01*
X153962618Y-102844819D02*
X154057856Y-102892438D01*
X154057856Y-102892438D02*
X154153094Y-102987676D01*
X154153094Y-102987676D02*
X154200713Y-103178152D01*
X154200713Y-103178152D02*
X154200713Y-103511485D01*
X154200713Y-103511485D02*
X154153094Y-103701961D01*
X154153094Y-103701961D02*
X154057856Y-103797200D01*
X154057856Y-103797200D02*
X153962618Y-103844819D01*
X153962618Y-103844819D02*
X153772142Y-103844819D01*
X153772142Y-103844819D02*
X153676904Y-103797200D01*
X153676904Y-103797200D02*
X153581666Y-103701961D01*
X153581666Y-103701961D02*
X153534047Y-103511485D01*
X153534047Y-103511485D02*
X153534047Y-103178152D01*
X153534047Y-103178152D02*
X153581666Y-102987676D01*
X153581666Y-102987676D02*
X153676904Y-102892438D01*
X153676904Y-102892438D02*
X153772142Y-102844819D01*
X154629285Y-103178152D02*
X154629285Y-103844819D01*
X154629285Y-103273390D02*
X154676904Y-103225771D01*
X154676904Y-103225771D02*
X154772142Y-103178152D01*
X154772142Y-103178152D02*
X154914999Y-103178152D01*
X154914999Y-103178152D02*
X155010237Y-103225771D01*
X155010237Y-103225771D02*
X155057856Y-103321009D01*
X155057856Y-103321009D02*
X155057856Y-103844819D01*
X156248332Y-102797200D02*
X155391190Y-104082914D01*
X156772142Y-102844819D02*
X156962618Y-102844819D01*
X156962618Y-102844819D02*
X157057856Y-102892438D01*
X157057856Y-102892438D02*
X157153094Y-102987676D01*
X157153094Y-102987676D02*
X157200713Y-103178152D01*
X157200713Y-103178152D02*
X157200713Y-103511485D01*
X157200713Y-103511485D02*
X157153094Y-103701961D01*
X157153094Y-103701961D02*
X157057856Y-103797200D01*
X157057856Y-103797200D02*
X156962618Y-103844819D01*
X156962618Y-103844819D02*
X156772142Y-103844819D01*
X156772142Y-103844819D02*
X156676904Y-103797200D01*
X156676904Y-103797200D02*
X156581666Y-103701961D01*
X156581666Y-103701961D02*
X156534047Y-103511485D01*
X156534047Y-103511485D02*
X156534047Y-103178152D01*
X156534047Y-103178152D02*
X156581666Y-102987676D01*
X156581666Y-102987676D02*
X156676904Y-102892438D01*
X156676904Y-102892438D02*
X156772142Y-102844819D01*
X157486428Y-103178152D02*
X157867380Y-103178152D01*
X157629285Y-103844819D02*
X157629285Y-102987676D01*
X157629285Y-102987676D02*
X157676904Y-102892438D01*
X157676904Y-102892438D02*
X157772142Y-102844819D01*
X157772142Y-102844819D02*
X157867380Y-102844819D01*
X158057857Y-103178152D02*
X158438809Y-103178152D01*
X158200714Y-103844819D02*
X158200714Y-102987676D01*
X158200714Y-102987676D02*
X158248333Y-102892438D01*
X158248333Y-102892438D02*
X158343571Y-102844819D01*
X158343571Y-102844819D02*
X158438809Y-102844819D01*
X159295952Y-103844819D02*
X158724524Y-103844819D01*
X159010238Y-103844819D02*
X159010238Y-102844819D01*
X159010238Y-102844819D02*
X158915000Y-102987676D01*
X158915000Y-102987676D02*
X158819762Y-103082914D01*
X158819762Y-103082914D02*
X158724524Y-103130533D01*
X124540476Y-121954819D02*
X124540476Y-120954819D01*
X124540476Y-120954819D02*
X124873809Y-121669104D01*
X124873809Y-121669104D02*
X125207142Y-120954819D01*
X125207142Y-120954819D02*
X125207142Y-121954819D01*
X126207142Y-121954819D02*
X125635714Y-121954819D01*
X125921428Y-121954819D02*
X125921428Y-120954819D01*
X125921428Y-120954819D02*
X125826190Y-121097676D01*
X125826190Y-121097676D02*
X125730952Y-121192914D01*
X125730952Y-121192914D02*
X125635714Y-121240533D01*
X118378571Y-141614700D02*
X119521429Y-141614700D01*
X130678571Y-141614700D02*
X131821429Y-141614700D01*
X131250000Y-142186128D02*
X131250000Y-141043271D01*
X142090476Y-121954819D02*
X142090476Y-120954819D01*
X142090476Y-120954819D02*
X142423809Y-121669104D01*
X142423809Y-121669104D02*
X142757142Y-120954819D01*
X142757142Y-120954819D02*
X142757142Y-121954819D01*
X143185714Y-121050057D02*
X143233333Y-121002438D01*
X143233333Y-121002438D02*
X143328571Y-120954819D01*
X143328571Y-120954819D02*
X143566666Y-120954819D01*
X143566666Y-120954819D02*
X143661904Y-121002438D01*
X143661904Y-121002438D02*
X143709523Y-121050057D01*
X143709523Y-121050057D02*
X143757142Y-121145295D01*
X143757142Y-121145295D02*
X143757142Y-121240533D01*
X143757142Y-121240533D02*
X143709523Y-121383390D01*
X143709523Y-121383390D02*
X143138095Y-121954819D01*
X143138095Y-121954819D02*
X143757142Y-121954819D01*
X135928571Y-141614700D02*
X137071429Y-141614700D01*
X148228571Y-141614700D02*
X149371429Y-141614700D01*
X148800000Y-142186128D02*
X148800000Y-141043271D01*
X177190476Y-121954819D02*
X177190476Y-120954819D01*
X177190476Y-120954819D02*
X177523809Y-121669104D01*
X177523809Y-121669104D02*
X177857142Y-120954819D01*
X177857142Y-120954819D02*
X177857142Y-121954819D01*
X178761904Y-121288152D02*
X178761904Y-121954819D01*
X178523809Y-120907200D02*
X178285714Y-121621485D01*
X178285714Y-121621485D02*
X178904761Y-121621485D01*
X183328571Y-141614700D02*
X184471429Y-141614700D01*
X183900000Y-142186128D02*
X183900000Y-141043271D01*
X171028571Y-141614700D02*
X172171429Y-141614700D01*
X179801666Y-108024819D02*
X179801666Y-107024819D01*
X180277856Y-107358152D02*
X180277856Y-108024819D01*
X180277856Y-107453390D02*
X180325475Y-107405771D01*
X180325475Y-107405771D02*
X180420713Y-107358152D01*
X180420713Y-107358152D02*
X180563570Y-107358152D01*
X180563570Y-107358152D02*
X180658808Y-107405771D01*
X180658808Y-107405771D02*
X180706427Y-107501009D01*
X180706427Y-107501009D02*
X180706427Y-108024819D01*
X181182618Y-107358152D02*
X181182618Y-108358152D01*
X181182618Y-107405771D02*
X181277856Y-107358152D01*
X181277856Y-107358152D02*
X181468332Y-107358152D01*
X181468332Y-107358152D02*
X181563570Y-107405771D01*
X181563570Y-107405771D02*
X181611189Y-107453390D01*
X181611189Y-107453390D02*
X181658808Y-107548628D01*
X181658808Y-107548628D02*
X181658808Y-107834342D01*
X181658808Y-107834342D02*
X181611189Y-107929580D01*
X181611189Y-107929580D02*
X181563570Y-107977200D01*
X181563570Y-107977200D02*
X181468332Y-108024819D01*
X181468332Y-108024819D02*
X181277856Y-108024819D01*
X181277856Y-108024819D02*
X181182618Y-107977200D01*
X182515951Y-107358152D02*
X182515951Y-108024819D01*
X182087380Y-107358152D02*
X182087380Y-107881961D01*
X182087380Y-107881961D02*
X182134999Y-107977200D01*
X182134999Y-107977200D02*
X182230237Y-108024819D01*
X182230237Y-108024819D02*
X182373094Y-108024819D01*
X182373094Y-108024819D02*
X182468332Y-107977200D01*
X182468332Y-107977200D02*
X182515951Y-107929580D01*
X182849285Y-107358152D02*
X183230237Y-107358152D01*
X182992142Y-107024819D02*
X182992142Y-107881961D01*
X182992142Y-107881961D02*
X183039761Y-107977200D01*
X183039761Y-107977200D02*
X183134999Y-108024819D01*
X183134999Y-108024819D02*
X183230237Y-108024819D01*
X183563571Y-108024819D02*
X183563571Y-107024819D01*
X183563571Y-107024819D02*
X183944523Y-107024819D01*
X183944523Y-107024819D02*
X184039761Y-107072438D01*
X184039761Y-107072438D02*
X184087380Y-107120057D01*
X184087380Y-107120057D02*
X184134999Y-107215295D01*
X184134999Y-107215295D02*
X184134999Y-107358152D01*
X184134999Y-107358152D02*
X184087380Y-107453390D01*
X184087380Y-107453390D02*
X184039761Y-107501009D01*
X184039761Y-107501009D02*
X183944523Y-107548628D01*
X183944523Y-107548628D02*
X183563571Y-107548628D01*
X184706428Y-108024819D02*
X184611190Y-107977200D01*
X184611190Y-107977200D02*
X184563571Y-107929580D01*
X184563571Y-107929580D02*
X184515952Y-107834342D01*
X184515952Y-107834342D02*
X184515952Y-107548628D01*
X184515952Y-107548628D02*
X184563571Y-107453390D01*
X184563571Y-107453390D02*
X184611190Y-107405771D01*
X184611190Y-107405771D02*
X184706428Y-107358152D01*
X184706428Y-107358152D02*
X184849285Y-107358152D01*
X184849285Y-107358152D02*
X184944523Y-107405771D01*
X184944523Y-107405771D02*
X184992142Y-107453390D01*
X184992142Y-107453390D02*
X185039761Y-107548628D01*
X185039761Y-107548628D02*
X185039761Y-107834342D01*
X185039761Y-107834342D02*
X184992142Y-107929580D01*
X184992142Y-107929580D02*
X184944523Y-107977200D01*
X184944523Y-107977200D02*
X184849285Y-108024819D01*
X184849285Y-108024819D02*
X184706428Y-108024819D01*
X185373095Y-107358152D02*
X185563571Y-108024819D01*
X185563571Y-108024819D02*
X185754047Y-107548628D01*
X185754047Y-107548628D02*
X185944523Y-108024819D01*
X185944523Y-108024819D02*
X186134999Y-107358152D01*
X186896904Y-107977200D02*
X186801666Y-108024819D01*
X186801666Y-108024819D02*
X186611190Y-108024819D01*
X186611190Y-108024819D02*
X186515952Y-107977200D01*
X186515952Y-107977200D02*
X186468333Y-107881961D01*
X186468333Y-107881961D02*
X186468333Y-107501009D01*
X186468333Y-107501009D02*
X186515952Y-107405771D01*
X186515952Y-107405771D02*
X186611190Y-107358152D01*
X186611190Y-107358152D02*
X186801666Y-107358152D01*
X186801666Y-107358152D02*
X186896904Y-107405771D01*
X186896904Y-107405771D02*
X186944523Y-107501009D01*
X186944523Y-107501009D02*
X186944523Y-107596247D01*
X186944523Y-107596247D02*
X186468333Y-107691485D01*
X187373095Y-108024819D02*
X187373095Y-107358152D01*
X187373095Y-107548628D02*
X187420714Y-107453390D01*
X187420714Y-107453390D02*
X187468333Y-107405771D01*
X187468333Y-107405771D02*
X187563571Y-107358152D01*
X187563571Y-107358152D02*
X187658809Y-107358152D01*
X188515952Y-108024819D02*
X187944524Y-108024819D01*
X188230238Y-108024819D02*
X188230238Y-107024819D01*
X188230238Y-107024819D02*
X188135000Y-107167676D01*
X188135000Y-107167676D02*
X188039762Y-107262914D01*
X188039762Y-107262914D02*
X187944524Y-107310533D01*
X124443333Y-66246009D02*
X124776666Y-66246009D01*
X124919523Y-66769819D02*
X124443333Y-66769819D01*
X124443333Y-66769819D02*
X124443333Y-65769819D01*
X124443333Y-65769819D02*
X124919523Y-65769819D01*
X125300476Y-66722200D02*
X125443333Y-66769819D01*
X125443333Y-66769819D02*
X125681428Y-66769819D01*
X125681428Y-66769819D02*
X125776666Y-66722200D01*
X125776666Y-66722200D02*
X125824285Y-66674580D01*
X125824285Y-66674580D02*
X125871904Y-66579342D01*
X125871904Y-66579342D02*
X125871904Y-66484104D01*
X125871904Y-66484104D02*
X125824285Y-66388866D01*
X125824285Y-66388866D02*
X125776666Y-66341247D01*
X125776666Y-66341247D02*
X125681428Y-66293628D01*
X125681428Y-66293628D02*
X125490952Y-66246009D01*
X125490952Y-66246009D02*
X125395714Y-66198390D01*
X125395714Y-66198390D02*
X125348095Y-66150771D01*
X125348095Y-66150771D02*
X125300476Y-66055533D01*
X125300476Y-66055533D02*
X125300476Y-65960295D01*
X125300476Y-65960295D02*
X125348095Y-65865057D01*
X125348095Y-65865057D02*
X125395714Y-65817438D01*
X125395714Y-65817438D02*
X125490952Y-65769819D01*
X125490952Y-65769819D02*
X125729047Y-65769819D01*
X125729047Y-65769819D02*
X125871904Y-65817438D01*
X126871904Y-66674580D02*
X126824285Y-66722200D01*
X126824285Y-66722200D02*
X126681428Y-66769819D01*
X126681428Y-66769819D02*
X126586190Y-66769819D01*
X126586190Y-66769819D02*
X126443333Y-66722200D01*
X126443333Y-66722200D02*
X126348095Y-66626961D01*
X126348095Y-66626961D02*
X126300476Y-66531723D01*
X126300476Y-66531723D02*
X126252857Y-66341247D01*
X126252857Y-66341247D02*
X126252857Y-66198390D01*
X126252857Y-66198390D02*
X126300476Y-66007914D01*
X126300476Y-66007914D02*
X126348095Y-65912676D01*
X126348095Y-65912676D02*
X126443333Y-65817438D01*
X126443333Y-65817438D02*
X126586190Y-65769819D01*
X126586190Y-65769819D02*
X126681428Y-65769819D01*
X126681428Y-65769819D02*
X126824285Y-65817438D01*
X126824285Y-65817438D02*
X126871904Y-65865057D01*
X127824285Y-66769819D02*
X127252857Y-66769819D01*
X127538571Y-66769819D02*
X127538571Y-65769819D01*
X127538571Y-65769819D02*
X127443333Y-65912676D01*
X127443333Y-65912676D02*
X127348095Y-66007914D01*
X127348095Y-66007914D02*
X127252857Y-66055533D01*
X149846009Y-67956666D02*
X149846009Y-67623333D01*
X150369819Y-67480476D02*
X150369819Y-67956666D01*
X150369819Y-67956666D02*
X149369819Y-67956666D01*
X149369819Y-67956666D02*
X149369819Y-67480476D01*
X150322200Y-67099523D02*
X150369819Y-66956666D01*
X150369819Y-66956666D02*
X150369819Y-66718571D01*
X150369819Y-66718571D02*
X150322200Y-66623333D01*
X150322200Y-66623333D02*
X150274580Y-66575714D01*
X150274580Y-66575714D02*
X150179342Y-66528095D01*
X150179342Y-66528095D02*
X150084104Y-66528095D01*
X150084104Y-66528095D02*
X149988866Y-66575714D01*
X149988866Y-66575714D02*
X149941247Y-66623333D01*
X149941247Y-66623333D02*
X149893628Y-66718571D01*
X149893628Y-66718571D02*
X149846009Y-66909047D01*
X149846009Y-66909047D02*
X149798390Y-67004285D01*
X149798390Y-67004285D02*
X149750771Y-67051904D01*
X149750771Y-67051904D02*
X149655533Y-67099523D01*
X149655533Y-67099523D02*
X149560295Y-67099523D01*
X149560295Y-67099523D02*
X149465057Y-67051904D01*
X149465057Y-67051904D02*
X149417438Y-67004285D01*
X149417438Y-67004285D02*
X149369819Y-66909047D01*
X149369819Y-66909047D02*
X149369819Y-66670952D01*
X149369819Y-66670952D02*
X149417438Y-66528095D01*
X150274580Y-65528095D02*
X150322200Y-65575714D01*
X150322200Y-65575714D02*
X150369819Y-65718571D01*
X150369819Y-65718571D02*
X150369819Y-65813809D01*
X150369819Y-65813809D02*
X150322200Y-65956666D01*
X150322200Y-65956666D02*
X150226961Y-66051904D01*
X150226961Y-66051904D02*
X150131723Y-66099523D01*
X150131723Y-66099523D02*
X149941247Y-66147142D01*
X149941247Y-66147142D02*
X149798390Y-66147142D01*
X149798390Y-66147142D02*
X149607914Y-66099523D01*
X149607914Y-66099523D02*
X149512676Y-66051904D01*
X149512676Y-66051904D02*
X149417438Y-65956666D01*
X149417438Y-65956666D02*
X149369819Y-65813809D01*
X149369819Y-65813809D02*
X149369819Y-65718571D01*
X149369819Y-65718571D02*
X149417438Y-65575714D01*
X149417438Y-65575714D02*
X149465057Y-65528095D01*
X149703152Y-64670952D02*
X150369819Y-64670952D01*
X149322200Y-64909047D02*
X150036485Y-65147142D01*
X150036485Y-65147142D02*
X150036485Y-64528095D01*
X179729047Y-78509104D02*
X180205237Y-78509104D01*
X179633809Y-78794819D02*
X179967142Y-77794819D01*
X179967142Y-77794819D02*
X180300475Y-78794819D01*
X180633809Y-78128152D02*
X180633809Y-78794819D01*
X180633809Y-78223390D02*
X180681428Y-78175771D01*
X180681428Y-78175771D02*
X180776666Y-78128152D01*
X180776666Y-78128152D02*
X180919523Y-78128152D01*
X180919523Y-78128152D02*
X181014761Y-78175771D01*
X181014761Y-78175771D02*
X181062380Y-78271009D01*
X181062380Y-78271009D02*
X181062380Y-78794819D01*
X181967142Y-78794819D02*
X181967142Y-78271009D01*
X181967142Y-78271009D02*
X181919523Y-78175771D01*
X181919523Y-78175771D02*
X181824285Y-78128152D01*
X181824285Y-78128152D02*
X181633809Y-78128152D01*
X181633809Y-78128152D02*
X181538571Y-78175771D01*
X181967142Y-78747200D02*
X181871904Y-78794819D01*
X181871904Y-78794819D02*
X181633809Y-78794819D01*
X181633809Y-78794819D02*
X181538571Y-78747200D01*
X181538571Y-78747200D02*
X181490952Y-78651961D01*
X181490952Y-78651961D02*
X181490952Y-78556723D01*
X181490952Y-78556723D02*
X181538571Y-78461485D01*
X181538571Y-78461485D02*
X181633809Y-78413866D01*
X181633809Y-78413866D02*
X181871904Y-78413866D01*
X181871904Y-78413866D02*
X181967142Y-78366247D01*
X182586190Y-78794819D02*
X182490952Y-78747200D01*
X182490952Y-78747200D02*
X182443333Y-78651961D01*
X182443333Y-78651961D02*
X182443333Y-77794819D01*
X183110000Y-78794819D02*
X183014762Y-78747200D01*
X183014762Y-78747200D02*
X182967143Y-78699580D01*
X182967143Y-78699580D02*
X182919524Y-78604342D01*
X182919524Y-78604342D02*
X182919524Y-78318628D01*
X182919524Y-78318628D02*
X182967143Y-78223390D01*
X182967143Y-78223390D02*
X183014762Y-78175771D01*
X183014762Y-78175771D02*
X183110000Y-78128152D01*
X183110000Y-78128152D02*
X183252857Y-78128152D01*
X183252857Y-78128152D02*
X183348095Y-78175771D01*
X183348095Y-78175771D02*
X183395714Y-78223390D01*
X183395714Y-78223390D02*
X183443333Y-78318628D01*
X183443333Y-78318628D02*
X183443333Y-78604342D01*
X183443333Y-78604342D02*
X183395714Y-78699580D01*
X183395714Y-78699580D02*
X183348095Y-78747200D01*
X183348095Y-78747200D02*
X183252857Y-78794819D01*
X183252857Y-78794819D02*
X183110000Y-78794819D01*
X184300476Y-78128152D02*
X184300476Y-78937676D01*
X184300476Y-78937676D02*
X184252857Y-79032914D01*
X184252857Y-79032914D02*
X184205238Y-79080533D01*
X184205238Y-79080533D02*
X184110000Y-79128152D01*
X184110000Y-79128152D02*
X183967143Y-79128152D01*
X183967143Y-79128152D02*
X183871905Y-79080533D01*
X184300476Y-78747200D02*
X184205238Y-78794819D01*
X184205238Y-78794819D02*
X184014762Y-78794819D01*
X184014762Y-78794819D02*
X183919524Y-78747200D01*
X183919524Y-78747200D02*
X183871905Y-78699580D01*
X183871905Y-78699580D02*
X183824286Y-78604342D01*
X183824286Y-78604342D02*
X183824286Y-78318628D01*
X183824286Y-78318628D02*
X183871905Y-78223390D01*
X183871905Y-78223390D02*
X183919524Y-78175771D01*
X183919524Y-78175771D02*
X184014762Y-78128152D01*
X184014762Y-78128152D02*
X184205238Y-78128152D01*
X184205238Y-78128152D02*
X184300476Y-78175771D01*
X184776667Y-78794819D02*
X184776667Y-77794819D01*
X184776667Y-77794819D02*
X185157619Y-77794819D01*
X185157619Y-77794819D02*
X185252857Y-77842438D01*
X185252857Y-77842438D02*
X185300476Y-77890057D01*
X185300476Y-77890057D02*
X185348095Y-77985295D01*
X185348095Y-77985295D02*
X185348095Y-78128152D01*
X185348095Y-78128152D02*
X185300476Y-78223390D01*
X185300476Y-78223390D02*
X185252857Y-78271009D01*
X185252857Y-78271009D02*
X185157619Y-78318628D01*
X185157619Y-78318628D02*
X184776667Y-78318628D01*
X185776667Y-78794819D02*
X185776667Y-78128152D01*
X185776667Y-77794819D02*
X185729048Y-77842438D01*
X185729048Y-77842438D02*
X185776667Y-77890057D01*
X185776667Y-77890057D02*
X185824286Y-77842438D01*
X185824286Y-77842438D02*
X185776667Y-77794819D01*
X185776667Y-77794819D02*
X185776667Y-77890057D01*
X186252857Y-78128152D02*
X186252857Y-78794819D01*
X186252857Y-78223390D02*
X186300476Y-78175771D01*
X186300476Y-78175771D02*
X186395714Y-78128152D01*
X186395714Y-78128152D02*
X186538571Y-78128152D01*
X186538571Y-78128152D02*
X186633809Y-78175771D01*
X186633809Y-78175771D02*
X186681428Y-78271009D01*
X186681428Y-78271009D02*
X186681428Y-78794819D01*
X187110000Y-78747200D02*
X187205238Y-78794819D01*
X187205238Y-78794819D02*
X187395714Y-78794819D01*
X187395714Y-78794819D02*
X187490952Y-78747200D01*
X187490952Y-78747200D02*
X187538571Y-78651961D01*
X187538571Y-78651961D02*
X187538571Y-78604342D01*
X187538571Y-78604342D02*
X187490952Y-78509104D01*
X187490952Y-78509104D02*
X187395714Y-78461485D01*
X187395714Y-78461485D02*
X187252857Y-78461485D01*
X187252857Y-78461485D02*
X187157619Y-78413866D01*
X187157619Y-78413866D02*
X187110000Y-78318628D01*
X187110000Y-78318628D02*
X187110000Y-78271009D01*
X187110000Y-78271009D02*
X187157619Y-78175771D01*
X187157619Y-78175771D02*
X187252857Y-78128152D01*
X187252857Y-78128152D02*
X187395714Y-78128152D01*
X187395714Y-78128152D02*
X187490952Y-78175771D01*
X188490952Y-78794819D02*
X187919524Y-78794819D01*
X188205238Y-78794819D02*
X188205238Y-77794819D01*
X188205238Y-77794819D02*
X188110000Y-77937676D01*
X188110000Y-77937676D02*
X188014762Y-78032914D01*
X188014762Y-78032914D02*
X187919524Y-78080533D01*
X94738095Y-66534819D02*
X94738095Y-65534819D01*
X94738095Y-65534819D02*
X94976190Y-65534819D01*
X94976190Y-65534819D02*
X95119047Y-65582438D01*
X95119047Y-65582438D02*
X95214285Y-65677676D01*
X95214285Y-65677676D02*
X95261904Y-65772914D01*
X95261904Y-65772914D02*
X95309523Y-65963390D01*
X95309523Y-65963390D02*
X95309523Y-66106247D01*
X95309523Y-66106247D02*
X95261904Y-66296723D01*
X95261904Y-66296723D02*
X95214285Y-66391961D01*
X95214285Y-66391961D02*
X95119047Y-66487200D01*
X95119047Y-66487200D02*
X94976190Y-66534819D01*
X94976190Y-66534819D02*
X94738095Y-66534819D01*
X95738095Y-66534819D02*
X95738095Y-65868152D01*
X95738095Y-65534819D02*
X95690476Y-65582438D01*
X95690476Y-65582438D02*
X95738095Y-65630057D01*
X95738095Y-65630057D02*
X95785714Y-65582438D01*
X95785714Y-65582438D02*
X95738095Y-65534819D01*
X95738095Y-65534819D02*
X95738095Y-65630057D01*
X96642856Y-65868152D02*
X96642856Y-66677676D01*
X96642856Y-66677676D02*
X96595237Y-66772914D01*
X96595237Y-66772914D02*
X96547618Y-66820533D01*
X96547618Y-66820533D02*
X96452380Y-66868152D01*
X96452380Y-66868152D02*
X96309523Y-66868152D01*
X96309523Y-66868152D02*
X96214285Y-66820533D01*
X96642856Y-66487200D02*
X96547618Y-66534819D01*
X96547618Y-66534819D02*
X96357142Y-66534819D01*
X96357142Y-66534819D02*
X96261904Y-66487200D01*
X96261904Y-66487200D02*
X96214285Y-66439580D01*
X96214285Y-66439580D02*
X96166666Y-66344342D01*
X96166666Y-66344342D02*
X96166666Y-66058628D01*
X96166666Y-66058628D02*
X96214285Y-65963390D01*
X96214285Y-65963390D02*
X96261904Y-65915771D01*
X96261904Y-65915771D02*
X96357142Y-65868152D01*
X96357142Y-65868152D02*
X96547618Y-65868152D01*
X96547618Y-65868152D02*
X96642856Y-65915771D01*
X97119047Y-66534819D02*
X97119047Y-65868152D01*
X97119047Y-65534819D02*
X97071428Y-65582438D01*
X97071428Y-65582438D02*
X97119047Y-65630057D01*
X97119047Y-65630057D02*
X97166666Y-65582438D01*
X97166666Y-65582438D02*
X97119047Y-65534819D01*
X97119047Y-65534819D02*
X97119047Y-65630057D01*
X97452380Y-65868152D02*
X97833332Y-65868152D01*
X97595237Y-65534819D02*
X97595237Y-66391961D01*
X97595237Y-66391961D02*
X97642856Y-66487200D01*
X97642856Y-66487200D02*
X97738094Y-66534819D01*
X97738094Y-66534819D02*
X97833332Y-66534819D01*
X98595237Y-66534819D02*
X98595237Y-66011009D01*
X98595237Y-66011009D02*
X98547618Y-65915771D01*
X98547618Y-65915771D02*
X98452380Y-65868152D01*
X98452380Y-65868152D02*
X98261904Y-65868152D01*
X98261904Y-65868152D02*
X98166666Y-65915771D01*
X98595237Y-66487200D02*
X98499999Y-66534819D01*
X98499999Y-66534819D02*
X98261904Y-66534819D01*
X98261904Y-66534819D02*
X98166666Y-66487200D01*
X98166666Y-66487200D02*
X98119047Y-66391961D01*
X98119047Y-66391961D02*
X98119047Y-66296723D01*
X98119047Y-66296723D02*
X98166666Y-66201485D01*
X98166666Y-66201485D02*
X98261904Y-66153866D01*
X98261904Y-66153866D02*
X98499999Y-66153866D01*
X98499999Y-66153866D02*
X98595237Y-66106247D01*
X99214285Y-66534819D02*
X99119047Y-66487200D01*
X99119047Y-66487200D02*
X99071428Y-66391961D01*
X99071428Y-66391961D02*
X99071428Y-65534819D01*
X99595238Y-66534819D02*
X99595238Y-65534819D01*
X99595238Y-65534819D02*
X99976190Y-65534819D01*
X99976190Y-65534819D02*
X100071428Y-65582438D01*
X100071428Y-65582438D02*
X100119047Y-65630057D01*
X100119047Y-65630057D02*
X100166666Y-65725295D01*
X100166666Y-65725295D02*
X100166666Y-65868152D01*
X100166666Y-65868152D02*
X100119047Y-65963390D01*
X100119047Y-65963390D02*
X100071428Y-66011009D01*
X100071428Y-66011009D02*
X99976190Y-66058628D01*
X99976190Y-66058628D02*
X99595238Y-66058628D01*
X100595238Y-66534819D02*
X100595238Y-65868152D01*
X100595238Y-65534819D02*
X100547619Y-65582438D01*
X100547619Y-65582438D02*
X100595238Y-65630057D01*
X100595238Y-65630057D02*
X100642857Y-65582438D01*
X100642857Y-65582438D02*
X100595238Y-65534819D01*
X100595238Y-65534819D02*
X100595238Y-65630057D01*
X101071428Y-65868152D02*
X101071428Y-66534819D01*
X101071428Y-65963390D02*
X101119047Y-65915771D01*
X101119047Y-65915771D02*
X101214285Y-65868152D01*
X101214285Y-65868152D02*
X101357142Y-65868152D01*
X101357142Y-65868152D02*
X101452380Y-65915771D01*
X101452380Y-65915771D02*
X101499999Y-66011009D01*
X101499999Y-66011009D02*
X101499999Y-66534819D01*
X101928571Y-66487200D02*
X102023809Y-66534819D01*
X102023809Y-66534819D02*
X102214285Y-66534819D01*
X102214285Y-66534819D02*
X102309523Y-66487200D01*
X102309523Y-66487200D02*
X102357142Y-66391961D01*
X102357142Y-66391961D02*
X102357142Y-66344342D01*
X102357142Y-66344342D02*
X102309523Y-66249104D01*
X102309523Y-66249104D02*
X102214285Y-66201485D01*
X102214285Y-66201485D02*
X102071428Y-66201485D01*
X102071428Y-66201485D02*
X101976190Y-66153866D01*
X101976190Y-66153866D02*
X101928571Y-66058628D01*
X101928571Y-66058628D02*
X101928571Y-66011009D01*
X101928571Y-66011009D02*
X101976190Y-65915771D01*
X101976190Y-65915771D02*
X102071428Y-65868152D01*
X102071428Y-65868152D02*
X102214285Y-65868152D01*
X102214285Y-65868152D02*
X102309523Y-65915771D01*
X103309523Y-66534819D02*
X102738095Y-66534819D01*
X103023809Y-66534819D02*
X103023809Y-65534819D01*
X103023809Y-65534819D02*
X102928571Y-65677676D01*
X102928571Y-65677676D02*
X102833333Y-65772914D01*
X102833333Y-65772914D02*
X102738095Y-65820533D01*
X153990952Y-76582438D02*
X153895714Y-76534819D01*
X153895714Y-76534819D02*
X153752857Y-76534819D01*
X153752857Y-76534819D02*
X153610000Y-76582438D01*
X153610000Y-76582438D02*
X153514762Y-76677676D01*
X153514762Y-76677676D02*
X153467143Y-76772914D01*
X153467143Y-76772914D02*
X153419524Y-76963390D01*
X153419524Y-76963390D02*
X153419524Y-77106247D01*
X153419524Y-77106247D02*
X153467143Y-77296723D01*
X153467143Y-77296723D02*
X153514762Y-77391961D01*
X153514762Y-77391961D02*
X153610000Y-77487200D01*
X153610000Y-77487200D02*
X153752857Y-77534819D01*
X153752857Y-77534819D02*
X153848095Y-77534819D01*
X153848095Y-77534819D02*
X153990952Y-77487200D01*
X153990952Y-77487200D02*
X154038571Y-77439580D01*
X154038571Y-77439580D02*
X154038571Y-77106247D01*
X154038571Y-77106247D02*
X153848095Y-77106247D01*
X154657619Y-77058628D02*
X154657619Y-77534819D01*
X154324286Y-76534819D02*
X154657619Y-77058628D01*
X154657619Y-77058628D02*
X154990952Y-76534819D01*
X155371905Y-77534819D02*
X155562381Y-77534819D01*
X155562381Y-77534819D02*
X155657619Y-77487200D01*
X155657619Y-77487200D02*
X155705238Y-77439580D01*
X155705238Y-77439580D02*
X155800476Y-77296723D01*
X155800476Y-77296723D02*
X155848095Y-77106247D01*
X155848095Y-77106247D02*
X155848095Y-76725295D01*
X155848095Y-76725295D02*
X155800476Y-76630057D01*
X155800476Y-76630057D02*
X155752857Y-76582438D01*
X155752857Y-76582438D02*
X155657619Y-76534819D01*
X155657619Y-76534819D02*
X155467143Y-76534819D01*
X155467143Y-76534819D02*
X155371905Y-76582438D01*
X155371905Y-76582438D02*
X155324286Y-76630057D01*
X155324286Y-76630057D02*
X155276667Y-76725295D01*
X155276667Y-76725295D02*
X155276667Y-76963390D01*
X155276667Y-76963390D02*
X155324286Y-77058628D01*
X155324286Y-77058628D02*
X155371905Y-77106247D01*
X155371905Y-77106247D02*
X155467143Y-77153866D01*
X155467143Y-77153866D02*
X155657619Y-77153866D01*
X155657619Y-77153866D02*
X155752857Y-77106247D01*
X155752857Y-77106247D02*
X155800476Y-77058628D01*
X155800476Y-77058628D02*
X155848095Y-76963390D01*
X156800476Y-77534819D02*
X156229048Y-77534819D01*
X156514762Y-77534819D02*
X156514762Y-76534819D01*
X156514762Y-76534819D02*
X156419524Y-76677676D01*
X156419524Y-76677676D02*
X156324286Y-76772914D01*
X156324286Y-76772914D02*
X156229048Y-76820533D01*
X95682619Y-103444819D02*
X95682619Y-102444819D01*
X95682619Y-102444819D02*
X96063571Y-102444819D01*
X96063571Y-102444819D02*
X96158809Y-102492438D01*
X96158809Y-102492438D02*
X96206428Y-102540057D01*
X96206428Y-102540057D02*
X96254047Y-102635295D01*
X96254047Y-102635295D02*
X96254047Y-102778152D01*
X96254047Y-102778152D02*
X96206428Y-102873390D01*
X96206428Y-102873390D02*
X96158809Y-102921009D01*
X96158809Y-102921009D02*
X96063571Y-102968628D01*
X96063571Y-102968628D02*
X95682619Y-102968628D01*
X96825476Y-103444819D02*
X96730238Y-103397200D01*
X96730238Y-103397200D02*
X96682619Y-103349580D01*
X96682619Y-103349580D02*
X96635000Y-103254342D01*
X96635000Y-103254342D02*
X96635000Y-102968628D01*
X96635000Y-102968628D02*
X96682619Y-102873390D01*
X96682619Y-102873390D02*
X96730238Y-102825771D01*
X96730238Y-102825771D02*
X96825476Y-102778152D01*
X96825476Y-102778152D02*
X96968333Y-102778152D01*
X96968333Y-102778152D02*
X97063571Y-102825771D01*
X97063571Y-102825771D02*
X97111190Y-102873390D01*
X97111190Y-102873390D02*
X97158809Y-102968628D01*
X97158809Y-102968628D02*
X97158809Y-103254342D01*
X97158809Y-103254342D02*
X97111190Y-103349580D01*
X97111190Y-103349580D02*
X97063571Y-103397200D01*
X97063571Y-103397200D02*
X96968333Y-103444819D01*
X96968333Y-103444819D02*
X96825476Y-103444819D01*
X97492143Y-102778152D02*
X97682619Y-103444819D01*
X97682619Y-103444819D02*
X97873095Y-102968628D01*
X97873095Y-102968628D02*
X98063571Y-103444819D01*
X98063571Y-103444819D02*
X98254047Y-102778152D01*
X99015952Y-103397200D02*
X98920714Y-103444819D01*
X98920714Y-103444819D02*
X98730238Y-103444819D01*
X98730238Y-103444819D02*
X98635000Y-103397200D01*
X98635000Y-103397200D02*
X98587381Y-103301961D01*
X98587381Y-103301961D02*
X98587381Y-102921009D01*
X98587381Y-102921009D02*
X98635000Y-102825771D01*
X98635000Y-102825771D02*
X98730238Y-102778152D01*
X98730238Y-102778152D02*
X98920714Y-102778152D01*
X98920714Y-102778152D02*
X99015952Y-102825771D01*
X99015952Y-102825771D02*
X99063571Y-102921009D01*
X99063571Y-102921009D02*
X99063571Y-103016247D01*
X99063571Y-103016247D02*
X98587381Y-103111485D01*
X99492143Y-103444819D02*
X99492143Y-102778152D01*
X99492143Y-102968628D02*
X99539762Y-102873390D01*
X99539762Y-102873390D02*
X99587381Y-102825771D01*
X99587381Y-102825771D02*
X99682619Y-102778152D01*
X99682619Y-102778152D02*
X99777857Y-102778152D01*
X100635000Y-103444819D02*
X100063572Y-103444819D01*
X100349286Y-103444819D02*
X100349286Y-102444819D01*
X100349286Y-102444819D02*
X100254048Y-102587676D01*
X100254048Y-102587676D02*
X100158810Y-102682914D01*
X100158810Y-102682914D02*
X100063572Y-102730533D01*
X159640476Y-121954819D02*
X159640476Y-120954819D01*
X159640476Y-120954819D02*
X159973809Y-121669104D01*
X159973809Y-121669104D02*
X160307142Y-120954819D01*
X160307142Y-120954819D02*
X160307142Y-121954819D01*
X160688095Y-120954819D02*
X161307142Y-120954819D01*
X161307142Y-120954819D02*
X160973809Y-121335771D01*
X160973809Y-121335771D02*
X161116666Y-121335771D01*
X161116666Y-121335771D02*
X161211904Y-121383390D01*
X161211904Y-121383390D02*
X161259523Y-121431009D01*
X161259523Y-121431009D02*
X161307142Y-121526247D01*
X161307142Y-121526247D02*
X161307142Y-121764342D01*
X161307142Y-121764342D02*
X161259523Y-121859580D01*
X161259523Y-121859580D02*
X161211904Y-121907200D01*
X161211904Y-121907200D02*
X161116666Y-121954819D01*
X161116666Y-121954819D02*
X160830952Y-121954819D01*
X160830952Y-121954819D02*
X160735714Y-121907200D01*
X160735714Y-121907200D02*
X160688095Y-121859580D01*
X153478571Y-141614700D02*
X154621429Y-141614700D01*
X165778571Y-141614700D02*
X166921429Y-141614700D01*
X166350000Y-142186128D02*
X166350000Y-141043271D01*
X160571428Y-103709819D02*
X160095238Y-103709819D01*
X160095238Y-103709819D02*
X160095238Y-102709819D01*
X160904762Y-103186009D02*
X161238095Y-103186009D01*
X161380952Y-103709819D02*
X160904762Y-103709819D01*
X160904762Y-103709819D02*
X160904762Y-102709819D01*
X160904762Y-102709819D02*
X161380952Y-102709819D01*
X161809524Y-103709819D02*
X161809524Y-102709819D01*
X161809524Y-102709819D02*
X162047619Y-102709819D01*
X162047619Y-102709819D02*
X162190476Y-102757438D01*
X162190476Y-102757438D02*
X162285714Y-102852676D01*
X162285714Y-102852676D02*
X162333333Y-102947914D01*
X162333333Y-102947914D02*
X162380952Y-103138390D01*
X162380952Y-103138390D02*
X162380952Y-103281247D01*
X162380952Y-103281247D02*
X162333333Y-103471723D01*
X162333333Y-103471723D02*
X162285714Y-103566961D01*
X162285714Y-103566961D02*
X162190476Y-103662200D01*
X162190476Y-103662200D02*
X162047619Y-103709819D01*
X162047619Y-103709819D02*
X161809524Y-103709819D01*
X162571429Y-103805057D02*
X163333333Y-103805057D01*
X163904762Y-103186009D02*
X164047619Y-103233628D01*
X164047619Y-103233628D02*
X164095238Y-103281247D01*
X164095238Y-103281247D02*
X164142857Y-103376485D01*
X164142857Y-103376485D02*
X164142857Y-103519342D01*
X164142857Y-103519342D02*
X164095238Y-103614580D01*
X164095238Y-103614580D02*
X164047619Y-103662200D01*
X164047619Y-103662200D02*
X163952381Y-103709819D01*
X163952381Y-103709819D02*
X163571429Y-103709819D01*
X163571429Y-103709819D02*
X163571429Y-102709819D01*
X163571429Y-102709819D02*
X163904762Y-102709819D01*
X163904762Y-102709819D02*
X164000000Y-102757438D01*
X164000000Y-102757438D02*
X164047619Y-102805057D01*
X164047619Y-102805057D02*
X164095238Y-102900295D01*
X164095238Y-102900295D02*
X164095238Y-102995533D01*
X164095238Y-102995533D02*
X164047619Y-103090771D01*
X164047619Y-103090771D02*
X164000000Y-103138390D01*
X164000000Y-103138390D02*
X163904762Y-103186009D01*
X163904762Y-103186009D02*
X163571429Y-103186009D01*
X165000000Y-103043152D02*
X165000000Y-103709819D01*
X164571429Y-103043152D02*
X164571429Y-103566961D01*
X164571429Y-103566961D02*
X164619048Y-103662200D01*
X164619048Y-103662200D02*
X164714286Y-103709819D01*
X164714286Y-103709819D02*
X164857143Y-103709819D01*
X164857143Y-103709819D02*
X164952381Y-103662200D01*
X164952381Y-103662200D02*
X165000000Y-103614580D01*
X165476191Y-103709819D02*
X165476191Y-103043152D01*
X165476191Y-102709819D02*
X165428572Y-102757438D01*
X165428572Y-102757438D02*
X165476191Y-102805057D01*
X165476191Y-102805057D02*
X165523810Y-102757438D01*
X165523810Y-102757438D02*
X165476191Y-102709819D01*
X165476191Y-102709819D02*
X165476191Y-102805057D01*
X166095238Y-103709819D02*
X166000000Y-103662200D01*
X166000000Y-103662200D02*
X165952381Y-103566961D01*
X165952381Y-103566961D02*
X165952381Y-102709819D01*
X166333334Y-103043152D02*
X166714286Y-103043152D01*
X166476191Y-102709819D02*
X166476191Y-103566961D01*
X166476191Y-103566961D02*
X166523810Y-103662200D01*
X166523810Y-103662200D02*
X166619048Y-103709819D01*
X166619048Y-103709819D02*
X166714286Y-103709819D01*
X167047620Y-103709819D02*
X167047620Y-103043152D01*
X167047620Y-102709819D02*
X167000001Y-102757438D01*
X167000001Y-102757438D02*
X167047620Y-102805057D01*
X167047620Y-102805057D02*
X167095239Y-102757438D01*
X167095239Y-102757438D02*
X167047620Y-102709819D01*
X167047620Y-102709819D02*
X167047620Y-102805057D01*
X167523810Y-103043152D02*
X167523810Y-103709819D01*
X167523810Y-103138390D02*
X167571429Y-103090771D01*
X167571429Y-103090771D02*
X167666667Y-103043152D01*
X167666667Y-103043152D02*
X167809524Y-103043152D01*
X167809524Y-103043152D02*
X167904762Y-103090771D01*
X167904762Y-103090771D02*
X167952381Y-103186009D01*
X167952381Y-103186009D02*
X167952381Y-103709819D01*
X168952381Y-103709819D02*
X168380953Y-103709819D01*
X168666667Y-103709819D02*
X168666667Y-102709819D01*
X168666667Y-102709819D02*
X168571429Y-102852676D01*
X168571429Y-102852676D02*
X168476191Y-102947914D01*
X168476191Y-102947914D02*
X168380953Y-102995533D01*
X133905714Y-71389104D02*
X134381904Y-71389104D01*
X133810476Y-71674819D02*
X134143809Y-70674819D01*
X134143809Y-70674819D02*
X134477142Y-71674819D01*
X135334285Y-71674819D02*
X134762857Y-71674819D01*
X135048571Y-71674819D02*
X135048571Y-70674819D01*
X135048571Y-70674819D02*
X134953333Y-70817676D01*
X134953333Y-70817676D02*
X134858095Y-70912914D01*
X134858095Y-70912914D02*
X134762857Y-70960533D01*
X133358095Y-111314819D02*
X133358095Y-112124342D01*
X133358095Y-112124342D02*
X133405714Y-112219580D01*
X133405714Y-112219580D02*
X133453333Y-112267200D01*
X133453333Y-112267200D02*
X133548571Y-112314819D01*
X133548571Y-112314819D02*
X133739047Y-112314819D01*
X133739047Y-112314819D02*
X133834285Y-112267200D01*
X133834285Y-112267200D02*
X133881904Y-112219580D01*
X133881904Y-112219580D02*
X133929523Y-112124342D01*
X133929523Y-112124342D02*
X133929523Y-111314819D01*
X134358095Y-112267200D02*
X134500952Y-112314819D01*
X134500952Y-112314819D02*
X134739047Y-112314819D01*
X134739047Y-112314819D02*
X134834285Y-112267200D01*
X134834285Y-112267200D02*
X134881904Y-112219580D01*
X134881904Y-112219580D02*
X134929523Y-112124342D01*
X134929523Y-112124342D02*
X134929523Y-112029104D01*
X134929523Y-112029104D02*
X134881904Y-111933866D01*
X134881904Y-111933866D02*
X134834285Y-111886247D01*
X134834285Y-111886247D02*
X134739047Y-111838628D01*
X134739047Y-111838628D02*
X134548571Y-111791009D01*
X134548571Y-111791009D02*
X134453333Y-111743390D01*
X134453333Y-111743390D02*
X134405714Y-111695771D01*
X134405714Y-111695771D02*
X134358095Y-111600533D01*
X134358095Y-111600533D02*
X134358095Y-111505295D01*
X134358095Y-111505295D02*
X134405714Y-111410057D01*
X134405714Y-111410057D02*
X134453333Y-111362438D01*
X134453333Y-111362438D02*
X134548571Y-111314819D01*
X134548571Y-111314819D02*
X134786666Y-111314819D01*
X134786666Y-111314819D02*
X134929523Y-111362438D01*
X135691428Y-111791009D02*
X135834285Y-111838628D01*
X135834285Y-111838628D02*
X135881904Y-111886247D01*
X135881904Y-111886247D02*
X135929523Y-111981485D01*
X135929523Y-111981485D02*
X135929523Y-112124342D01*
X135929523Y-112124342D02*
X135881904Y-112219580D01*
X135881904Y-112219580D02*
X135834285Y-112267200D01*
X135834285Y-112267200D02*
X135739047Y-112314819D01*
X135739047Y-112314819D02*
X135358095Y-112314819D01*
X135358095Y-112314819D02*
X135358095Y-111314819D01*
X135358095Y-111314819D02*
X135691428Y-111314819D01*
X135691428Y-111314819D02*
X135786666Y-111362438D01*
X135786666Y-111362438D02*
X135834285Y-111410057D01*
X135834285Y-111410057D02*
X135881904Y-111505295D01*
X135881904Y-111505295D02*
X135881904Y-111600533D01*
X135881904Y-111600533D02*
X135834285Y-111695771D01*
X135834285Y-111695771D02*
X135786666Y-111743390D01*
X135786666Y-111743390D02*
X135691428Y-111791009D01*
X135691428Y-111791009D02*
X135358095Y-111791009D01*
X140146009Y-67956666D02*
X140146009Y-67623333D01*
X140669819Y-67480476D02*
X140669819Y-67956666D01*
X140669819Y-67956666D02*
X139669819Y-67956666D01*
X139669819Y-67956666D02*
X139669819Y-67480476D01*
X140622200Y-67099523D02*
X140669819Y-66956666D01*
X140669819Y-66956666D02*
X140669819Y-66718571D01*
X140669819Y-66718571D02*
X140622200Y-66623333D01*
X140622200Y-66623333D02*
X140574580Y-66575714D01*
X140574580Y-66575714D02*
X140479342Y-66528095D01*
X140479342Y-66528095D02*
X140384104Y-66528095D01*
X140384104Y-66528095D02*
X140288866Y-66575714D01*
X140288866Y-66575714D02*
X140241247Y-66623333D01*
X140241247Y-66623333D02*
X140193628Y-66718571D01*
X140193628Y-66718571D02*
X140146009Y-66909047D01*
X140146009Y-66909047D02*
X140098390Y-67004285D01*
X140098390Y-67004285D02*
X140050771Y-67051904D01*
X140050771Y-67051904D02*
X139955533Y-67099523D01*
X139955533Y-67099523D02*
X139860295Y-67099523D01*
X139860295Y-67099523D02*
X139765057Y-67051904D01*
X139765057Y-67051904D02*
X139717438Y-67004285D01*
X139717438Y-67004285D02*
X139669819Y-66909047D01*
X139669819Y-66909047D02*
X139669819Y-66670952D01*
X139669819Y-66670952D02*
X139717438Y-66528095D01*
X140574580Y-65528095D02*
X140622200Y-65575714D01*
X140622200Y-65575714D02*
X140669819Y-65718571D01*
X140669819Y-65718571D02*
X140669819Y-65813809D01*
X140669819Y-65813809D02*
X140622200Y-65956666D01*
X140622200Y-65956666D02*
X140526961Y-66051904D01*
X140526961Y-66051904D02*
X140431723Y-66099523D01*
X140431723Y-66099523D02*
X140241247Y-66147142D01*
X140241247Y-66147142D02*
X140098390Y-66147142D01*
X140098390Y-66147142D02*
X139907914Y-66099523D01*
X139907914Y-66099523D02*
X139812676Y-66051904D01*
X139812676Y-66051904D02*
X139717438Y-65956666D01*
X139717438Y-65956666D02*
X139669819Y-65813809D01*
X139669819Y-65813809D02*
X139669819Y-65718571D01*
X139669819Y-65718571D02*
X139717438Y-65575714D01*
X139717438Y-65575714D02*
X139765057Y-65528095D01*
X139669819Y-65194761D02*
X139669819Y-64575714D01*
X139669819Y-64575714D02*
X140050771Y-64909047D01*
X140050771Y-64909047D02*
X140050771Y-64766190D01*
X140050771Y-64766190D02*
X140098390Y-64670952D01*
X140098390Y-64670952D02*
X140146009Y-64623333D01*
X140146009Y-64623333D02*
X140241247Y-64575714D01*
X140241247Y-64575714D02*
X140479342Y-64575714D01*
X140479342Y-64575714D02*
X140574580Y-64623333D01*
X140574580Y-64623333D02*
X140622200Y-64670952D01*
X140622200Y-64670952D02*
X140669819Y-64766190D01*
X140669819Y-64766190D02*
X140669819Y-65051904D01*
X140669819Y-65051904D02*
X140622200Y-65147142D01*
X140622200Y-65147142D02*
X140574580Y-65194761D01*
X130446009Y-67956666D02*
X130446009Y-67623333D01*
X130969819Y-67480476D02*
X130969819Y-67956666D01*
X130969819Y-67956666D02*
X129969819Y-67956666D01*
X129969819Y-67956666D02*
X129969819Y-67480476D01*
X130922200Y-67099523D02*
X130969819Y-66956666D01*
X130969819Y-66956666D02*
X130969819Y-66718571D01*
X130969819Y-66718571D02*
X130922200Y-66623333D01*
X130922200Y-66623333D02*
X130874580Y-66575714D01*
X130874580Y-66575714D02*
X130779342Y-66528095D01*
X130779342Y-66528095D02*
X130684104Y-66528095D01*
X130684104Y-66528095D02*
X130588866Y-66575714D01*
X130588866Y-66575714D02*
X130541247Y-66623333D01*
X130541247Y-66623333D02*
X130493628Y-66718571D01*
X130493628Y-66718571D02*
X130446009Y-66909047D01*
X130446009Y-66909047D02*
X130398390Y-67004285D01*
X130398390Y-67004285D02*
X130350771Y-67051904D01*
X130350771Y-67051904D02*
X130255533Y-67099523D01*
X130255533Y-67099523D02*
X130160295Y-67099523D01*
X130160295Y-67099523D02*
X130065057Y-67051904D01*
X130065057Y-67051904D02*
X130017438Y-67004285D01*
X130017438Y-67004285D02*
X129969819Y-66909047D01*
X129969819Y-66909047D02*
X129969819Y-66670952D01*
X129969819Y-66670952D02*
X130017438Y-66528095D01*
X130874580Y-65528095D02*
X130922200Y-65575714D01*
X130922200Y-65575714D02*
X130969819Y-65718571D01*
X130969819Y-65718571D02*
X130969819Y-65813809D01*
X130969819Y-65813809D02*
X130922200Y-65956666D01*
X130922200Y-65956666D02*
X130826961Y-66051904D01*
X130826961Y-66051904D02*
X130731723Y-66099523D01*
X130731723Y-66099523D02*
X130541247Y-66147142D01*
X130541247Y-66147142D02*
X130398390Y-66147142D01*
X130398390Y-66147142D02*
X130207914Y-66099523D01*
X130207914Y-66099523D02*
X130112676Y-66051904D01*
X130112676Y-66051904D02*
X130017438Y-65956666D01*
X130017438Y-65956666D02*
X129969819Y-65813809D01*
X129969819Y-65813809D02*
X129969819Y-65718571D01*
X129969819Y-65718571D02*
X130017438Y-65575714D01*
X130017438Y-65575714D02*
X130065057Y-65528095D01*
X130065057Y-65147142D02*
X130017438Y-65099523D01*
X130017438Y-65099523D02*
X129969819Y-65004285D01*
X129969819Y-65004285D02*
X129969819Y-64766190D01*
X129969819Y-64766190D02*
X130017438Y-64670952D01*
X130017438Y-64670952D02*
X130065057Y-64623333D01*
X130065057Y-64623333D02*
X130160295Y-64575714D01*
X130160295Y-64575714D02*
X130255533Y-64575714D01*
X130255533Y-64575714D02*
X130398390Y-64623333D01*
X130398390Y-64623333D02*
X130969819Y-65194761D01*
X130969819Y-65194761D02*
X130969819Y-64575714D01*
D11*
%TO.C,R220-1*%
X155710000Y-113500000D02*
X156480000Y-113500000D01*
X163790000Y-113500000D02*
X163020000Y-113500000D01*
X156480000Y-112130000D02*
X163020000Y-112130000D01*
X163020000Y-114870000D01*
X156480000Y-114870000D01*
X156480000Y-112130000D01*
%TO.C,Battery1*%
X96750000Y-122890000D02*
X96750000Y-137200000D01*
X96750000Y-122890000D02*
X112470000Y-122890000D01*
X103320000Y-141310000D02*
X107060000Y-141310000D01*
X112470000Y-122890000D02*
X112470000Y-137200000D01*
X98743194Y-140722958D02*
G75*
G02*
X96750000Y-137200000I2116805J3522957D01*
G01*
X112470000Y-137200000D02*
G75*
G02*
X109561648Y-141130413I-4110000J0D01*
G01*
%TO.C,On/Off1*%
X153855000Y-105805000D02*
X153855000Y-108895000D01*
X153855000Y-105805170D02*
G75*
G02*
X159405000Y-107350000I2560000J-1544830D01*
G01*
X159405000Y-107350000D02*
G75*
G02*
X153855000Y-108894830I-2990000J0D01*
G01*
X158915000Y-107350000D02*
G75*
G02*
X153915000Y-107350000I-2500000J0D01*
G01*
X153915000Y-107350000D02*
G75*
G02*
X158915000Y-107350000I2500000J0D01*
G01*
%TO.C,M1*%
X117490000Y-122540000D02*
X117490000Y-136850000D01*
X117490000Y-122540000D02*
X133210000Y-122540000D01*
X124060000Y-140960000D02*
X127800000Y-140960000D01*
X133210000Y-122540000D02*
X133210000Y-136850000D01*
X119483194Y-140372958D02*
G75*
G02*
X117490000Y-136850000I2116805J3522957D01*
G01*
X133210000Y-136850000D02*
G75*
G02*
X130301648Y-140780413I-4110000J0D01*
G01*
%TO.C,M2*%
X135040000Y-122540000D02*
X135040000Y-136850000D01*
X135040000Y-122540000D02*
X150760000Y-122540000D01*
X141610000Y-140960000D02*
X145350000Y-140960000D01*
X150760000Y-122540000D02*
X150760000Y-136850000D01*
X137033194Y-140372958D02*
G75*
G02*
X135040000Y-136850000I2116805J3522957D01*
G01*
X150760000Y-136850000D02*
G75*
G02*
X147851648Y-140780413I-4110000J0D01*
G01*
%TO.C,M4*%
X170140000Y-122540000D02*
X170140000Y-136850000D01*
X170140000Y-122540000D02*
X185860000Y-122540000D01*
X176710000Y-140960000D02*
X180450000Y-140960000D01*
X185860000Y-122540000D02*
X185860000Y-136850000D01*
X172133194Y-140372958D02*
G75*
G02*
X170140000Y-136850000I2116805J3522957D01*
G01*
X185860000Y-136850000D02*
G75*
G02*
X182951648Y-140780413I-4110000J0D01*
G01*
%TO.C,InputPower1*%
X182805000Y-111610000D02*
X182805000Y-114210000D01*
X182805000Y-111610000D02*
X185465000Y-111610000D01*
X182805000Y-114210000D02*
X185465000Y-114210000D01*
X184135000Y-109010000D02*
X185465000Y-109010000D01*
X185465000Y-109010000D02*
X185465000Y-110340000D01*
X185465000Y-111610000D02*
X185465000Y-114210000D01*
%TO.C,R220-2*%
X155710000Y-117550000D02*
X156480000Y-117550000D01*
X163790000Y-117550000D02*
X163020000Y-117550000D01*
X156480000Y-116180000D02*
X163020000Y-116180000D01*
X163020000Y-118920000D01*
X156480000Y-118920000D01*
X156480000Y-116180000D01*
%TO.C,ESC1*%
X122255000Y-64960000D02*
X123585000Y-64960000D01*
X122255000Y-66290000D02*
X122255000Y-64960000D01*
X124855000Y-64960000D02*
X129995000Y-64960000D01*
X124855000Y-67620000D02*
X124855000Y-64960000D01*
X124855000Y-67620000D02*
X129995000Y-67620000D01*
X129995000Y-67620000D02*
X129995000Y-64960000D01*
%TO.C,ESC4*%
X151355000Y-64960000D02*
X152685000Y-64960000D01*
X151355000Y-66290000D02*
X151355000Y-64960000D01*
X153955000Y-64960000D02*
X159095000Y-64960000D01*
X153955000Y-67620000D02*
X153955000Y-64960000D01*
X153955000Y-67620000D02*
X159095000Y-67620000D01*
X159095000Y-67620000D02*
X159095000Y-64960000D01*
%TO.C,AnalogPins1*%
X182780000Y-82380000D02*
X182780000Y-97680000D01*
X182780000Y-82380000D02*
X185440000Y-82380000D01*
X182780000Y-97680000D02*
X185440000Y-97680000D01*
X184110000Y-79780000D02*
X185440000Y-79780000D01*
X185440000Y-79780000D02*
X185440000Y-81110000D01*
X185440000Y-82380000D02*
X185440000Y-97680000D01*
%TO.C,DigitalPins1*%
X96780000Y-70120000D02*
X96780000Y-100660000D01*
X96780000Y-70120000D02*
X99440000Y-70120000D01*
X96780000Y-100660000D02*
X99440000Y-100660000D01*
X98110000Y-67520000D02*
X99440000Y-67520000D01*
X99440000Y-67520000D02*
X99440000Y-68850000D01*
X99440000Y-70120000D02*
X99440000Y-100660000D01*
%TO.C,GY91*%
X153780000Y-81120000D02*
X153780000Y-98960000D01*
X153780000Y-81120000D02*
X156440000Y-81120000D01*
X153780000Y-98960000D02*
X156440000Y-98960000D01*
X155110000Y-78520000D02*
X156440000Y-78520000D01*
X156440000Y-78520000D02*
X156440000Y-79850000D01*
X156440000Y-81120000D02*
X156440000Y-98960000D01*
%TO.C,Power1*%
X96805000Y-107030000D02*
X96805000Y-119790000D01*
X96805000Y-107030000D02*
X99465000Y-107030000D01*
X96805000Y-119790000D02*
X99465000Y-119790000D01*
X98135000Y-104430000D02*
X99465000Y-104430000D01*
X99465000Y-104430000D02*
X99465000Y-105760000D01*
X99465000Y-107030000D02*
X99465000Y-119790000D01*
%TO.C,M3*%
X152590000Y-122540000D02*
X152590000Y-136850000D01*
X152590000Y-122540000D02*
X168310000Y-122540000D01*
X159160000Y-140960000D02*
X162900000Y-140960000D01*
X168310000Y-122540000D02*
X168310000Y-136850000D01*
X154583194Y-140372958D02*
G75*
G02*
X152590000Y-136850000I2116805J3522957D01*
G01*
X168310000Y-136850000D02*
G75*
G02*
X165401648Y-140780413I-4110000J0D01*
G01*
%TO.C,LED_Builtin1*%
X160695000Y-105670000D02*
X160695000Y-108760000D01*
X160695000Y-105670170D02*
G75*
G02*
X166245000Y-107215000I2560000J-1544830D01*
G01*
X166245000Y-107215000D02*
G75*
G02*
X160695000Y-108759830I-2990000J0D01*
G01*
X165755000Y-107215000D02*
G75*
G02*
X160755000Y-107215000I-2500000J0D01*
G01*
X160755000Y-107215000D02*
G75*
G02*
X165755000Y-107215000I2500000J0D01*
G01*
%TO.C,A1*%
X125600000Y-72360000D02*
X125600000Y-75030000D01*
X125600000Y-77570000D02*
X125600000Y-115800000D01*
X125600000Y-115800000D02*
X130680000Y-115800000D01*
X128270000Y-75030000D02*
X125600000Y-75030000D01*
X128270000Y-77570000D02*
X125600000Y-77570000D01*
X128270000Y-77570000D02*
X128270000Y-75030000D01*
X128270000Y-77570000D02*
X128270000Y-113130000D01*
X128270000Y-113130000D02*
X125600000Y-113130000D01*
X130680000Y-107920000D02*
X138560000Y-107920000D01*
X130680000Y-118340000D02*
X130680000Y-107920000D01*
X138560000Y-107920000D02*
X138560000Y-118340000D01*
X138560000Y-118340000D02*
X130680000Y-118340000D01*
X140970000Y-75030000D02*
X140970000Y-113130000D01*
X140970000Y-75030000D02*
X143640000Y-75030000D01*
X140970000Y-113130000D02*
X143640000Y-113130000D01*
X143640000Y-72360000D02*
X125600000Y-72360000D01*
X143640000Y-115800000D02*
X138560000Y-115800000D01*
X143640000Y-115800000D02*
X143640000Y-72360000D01*
%TO.C,ESC3*%
X141655000Y-64960000D02*
X142985000Y-64960000D01*
X141655000Y-66290000D02*
X141655000Y-64960000D01*
X144255000Y-64960000D02*
X149395000Y-64960000D01*
X144255000Y-67620000D02*
X144255000Y-64960000D01*
X144255000Y-67620000D02*
X149395000Y-67620000D01*
X149395000Y-67620000D02*
X149395000Y-64960000D01*
%TO.C,ESC2*%
X131955000Y-64960000D02*
X133285000Y-64960000D01*
X131955000Y-66290000D02*
X131955000Y-64960000D01*
X134555000Y-64960000D02*
X139695000Y-64960000D01*
X134555000Y-67620000D02*
X134555000Y-64960000D01*
X134555000Y-67620000D02*
X139695000Y-67620000D01*
X139695000Y-67620000D02*
X139695000Y-64960000D01*
%TD*%
%LPC*%
D12*
%TO.C,R220-1*%
X154670000Y-113500000D03*
X164830000Y-113500000D03*
%TD*%
D13*
%TO.C,Battery1*%
X97860000Y-133350000D03*
X111360000Y-133350000D03*
D14*
X101010000Y-139350000D03*
D15*
X108210000Y-139350000D03*
%TD*%
D16*
%TO.C,On/Off1*%
X155145000Y-107350000D03*
D17*
X157685000Y-107350000D03*
%TD*%
D13*
%TO.C,M1*%
X118600000Y-133000000D03*
X132100000Y-133000000D03*
D14*
X121750000Y-139000000D03*
D15*
X128950000Y-139000000D03*
%TD*%
D13*
%TO.C,M2*%
X136150000Y-133000000D03*
X149650000Y-133000000D03*
D14*
X139300000Y-139000000D03*
D15*
X146500000Y-139000000D03*
%TD*%
D13*
%TO.C,M4*%
X171250000Y-133000000D03*
X184750000Y-133000000D03*
D14*
X174400000Y-139000000D03*
D15*
X181600000Y-139000000D03*
%TD*%
D18*
%TO.C,InputPower1*%
X184135000Y-110340000D03*
D19*
X184135000Y-112880000D03*
%TD*%
D12*
%TO.C,R220-2*%
X154670000Y-117550000D03*
X164830000Y-117550000D03*
%TD*%
D18*
%TO.C,ESC1*%
X123585000Y-66290000D03*
D19*
X126125000Y-66290000D03*
X128665000Y-66290000D03*
%TD*%
D18*
%TO.C,ESC4*%
X152685000Y-66290000D03*
D19*
X155225000Y-66290000D03*
X157765000Y-66290000D03*
%TD*%
D18*
%TO.C,AnalogPins1*%
X184110000Y-81110000D03*
D19*
X184110000Y-83650000D03*
X184110000Y-86190000D03*
X184110000Y-88730000D03*
X184110000Y-91270000D03*
X184110000Y-93810000D03*
X184110000Y-96350000D03*
%TD*%
D18*
%TO.C,DigitalPins1*%
X98110000Y-68850000D03*
D19*
X98110000Y-71390000D03*
X98110000Y-73930000D03*
X98110000Y-76470000D03*
X98110000Y-79010000D03*
X98110000Y-81550000D03*
X98110000Y-84090000D03*
X98110000Y-86630000D03*
X98110000Y-89170000D03*
X98110000Y-91710000D03*
X98110000Y-94250000D03*
X98110000Y-96790000D03*
X98110000Y-99330000D03*
%TD*%
D18*
%TO.C,GY91*%
X155110000Y-79850000D03*
D19*
X155110000Y-82390000D03*
X155110000Y-84930000D03*
X155110000Y-87470000D03*
X155110000Y-90010000D03*
X155110000Y-92550000D03*
X155110000Y-95090000D03*
X155110000Y-97630000D03*
%TD*%
D18*
%TO.C,Power1*%
X98135000Y-105760000D03*
D19*
X98135000Y-108300000D03*
X98135000Y-110840000D03*
X98135000Y-113380000D03*
X98135000Y-115920000D03*
X98135000Y-118460000D03*
%TD*%
D13*
%TO.C,M3*%
X153700000Y-133000000D03*
X167200000Y-133000000D03*
D14*
X156850000Y-139000000D03*
D15*
X164050000Y-139000000D03*
%TD*%
D16*
%TO.C,LED_Builtin1*%
X161985000Y-107215000D03*
D17*
X164525000Y-107215000D03*
%TD*%
D20*
%TO.C,A1*%
X127000000Y-76300000D03*
D21*
X127000000Y-78840000D03*
X127000000Y-81380000D03*
X127000000Y-83920000D03*
X127000000Y-86460000D03*
X127000000Y-89000000D03*
X127000000Y-91540000D03*
X127000000Y-94080000D03*
X127000000Y-96620000D03*
X127000000Y-99160000D03*
X127000000Y-101700000D03*
X127000000Y-104240000D03*
X127000000Y-106780000D03*
X127000000Y-109320000D03*
X127000000Y-111860000D03*
X142240000Y-111860000D03*
X142240000Y-109320000D03*
X142240000Y-106780000D03*
X142240000Y-104240000D03*
X142240000Y-101700000D03*
X142240000Y-99160000D03*
X142240000Y-96620000D03*
X142240000Y-94080000D03*
X142240000Y-91540000D03*
X142240000Y-89000000D03*
X142240000Y-86460000D03*
X142240000Y-83920000D03*
X142240000Y-81380000D03*
X142240000Y-78840000D03*
X142240000Y-76300000D03*
%TD*%
D18*
%TO.C,ESC3*%
X142985000Y-66290000D03*
D19*
X145525000Y-66290000D03*
X148065000Y-66290000D03*
%TD*%
D18*
%TO.C,ESC2*%
X133285000Y-66290000D03*
D19*
X135825000Y-66290000D03*
X138365000Y-66290000D03*
%TD*%
%LPD*%
M02*
